<svg fill="rgb(97,165,194)" enable-background="new 0 0 256 256" version="1.1" viewBox="0 0 256 256" x="0px" xml:space="preserve" xmlns="http://www.w3.org/2000/svg" xmlns:xlink="http://www.w3.org/1999/xlink" y="0px"><g transform="translate(38.4,38.4) scale(0.7)">
<g><g><g><path d="M117.7,27.2c-23.9,1.1-47,6.2-62.6,13.7c-4.6,2.3-6.4,3.4-8.8,5.7c-2.5,2.4-3,3.2-3.3,5c-0.1,1.2-0.2,33.6-0.1,72l0.1,69.9l1.1,2.7c1.9,4.8,7.6,9.8,12.5,10.9l1.3,0.3v8.2c0,7.7,0,8.2,1.1,9.7c2.1,3.1,3.4,3.5,12,3.7c4.2,0.1,8.7,0,9.8-0.1c2.6-0.4,5.6-2.9,6.3-5.3c0.2-1,0.5-4.9,0.5-8.9v-7.1h40.5h40.5v7.1c0,4,0.2,7.9,0.5,8.8c0.6,2.1,3.1,4.6,5.2,5.2c2.2,0.7,16.8,0.6,18.8,0c0.9-0.3,2.1-1,2.7-1.6c2.2-2,2.4-3,2.4-11.5v-8l2.2-0.8c5.3-1.8,9.6-5.8,11.6-10.5l1.1-2.7l0.1-70.6c0.1-49.1,0-71.1-0.4-72.3c-1.1-3.8-9.5-9.4-19.8-13.2c-10.3-3.8-24.1-7.1-37.7-8.8c-7.1-0.9-23.4-2-27.8-1.8C126.4,26.9,122,27,117.7,27.2z M159.2,49.4v4.7h-30.8H97.5v-4.7v-4.7h30.8h30.8V49.4z M117.3,74.3c0.9,0.5,2.3,1.6,3.1,2.6l1.4,1.8v16.6v16.6l-1.2,1.7c-0.7,1-2.2,2.3-3.5,2.9l-2.4,1.2H90c-23.1,0-24.9-0.1-26.6-0.9c-2.2-1-4.2-3-4.9-4.9c-0.3-0.8-0.5-7-0.5-16.6c0-14.1,0.1-15.4,0.9-17c1-2,2-3,4-4c1.2-0.7,4.7-0.8,27.1-0.8C114.1,73.4,115.7,73.4,117.3,74.3z M194.6,74.9c1,0.8,2.2,2.2,2.7,3.2c0.9,1.7,0.9,2.8,0.9,17.1c0,9.6-0.2,15.8-0.5,16.6c-0.7,1.9-2.7,3.9-4.9,4.9c-1.7,0.8-3.5,0.9-26.6,0.9h-24.7l-2.4-1.2c-1.3-0.7-2.8-1.9-3.5-2.9l-1.2-1.7l-0.1-15.9c-0.1-15-0.1-16,0.8-17.7c1-2,2-3.1,4-4.1c1.2-0.7,4.5-0.8,27.6-0.7l26.2,0.1L194.6,74.9z M78.6,146.3c6,2.7,9.8,9.7,8.6,16c-1.5,7.7-7.9,12.7-15.5,12.2c-8-0.6-13.6-6.7-13.6-14.9c0-6.6,4.7-12.6,11.2-14.2C71.7,144.8,76,145.2,78.6,146.3z M189.4,146.3c2.9,1.2,5.8,4,7.3,6.8c1.1,2.1,1.3,3,1.3,6.6c0,4.9-0.9,7.4-4,10.5c-2.7,2.7-5.6,3.9-9.6,4.2c-6.2,0.4-11.2-2.5-14-8.2c-1.3-2.6-1.5-3.6-1.5-6.4c0-4.1,1.1-6.9,4-10C177.2,145.1,183.6,143.8,189.4,146.3z"/><path d="M221.9,73.3l-2,0.1v21.7v21.6h8.9c5.4,0,9.5-0.2,10.4-0.5c2.4-0.8,4.6-2.6,5.7-4.8c1-1.9,1-2.4,1-16.6V80.1l-1.4-2.3c-2.4-3.9-4.1-4.5-13.2-4.6C227.3,73.2,223,73.2,221.9,73.3z"/><path d="M15.1,74.4c-1.4,0.8-2.5,1.9-3.5,3.4l-1.4,2.3l-0.1,13.2c-0.2,15.9,0,17.4,3,20.3c1.2,1.1,2.8,2.2,3.8,2.5c1,0.3,5.8,0.5,10.7,0.5h8.8V95V73.4h-9.6C17.6,73.4,17.1,73.4,15.1,74.4z"/></g></g></g>
</g><text dy="38.4"  text-anchor="middle" dx="50%"  font-weight="bold" font-size="38.4" fill="rgb(97,165,194)">Stellar</text><text dy="250.88"  text-anchor="middle" dx="50%"  font-weight="bold" font-size="38.4" fill="rgb(97,165,194)">Sprint</text></svg>