<svg xmlns="http://www.w3.org/2000/svg" xmlns:xlink="http://www.w3.org/1999/xlink" viewBox="0 0 432 57.398">
<path style="fill:#4C4E50;" d="M93.022,45.303c-6.668,0-9.546-3.4-10.197-4.314v15.492H74.98V13.074h7.451l0.131,4.119
	c0.327-0.458,3.792-5.23,11.374-5.23c6.539,0,14.71,4.443,14.71,16.801C108.646,37.003,103.22,45.303,93.022,45.303 M91.714,18.435
	c-5.033,0-9.021,3.987-9.021,10.329c0,6.21,3.857,10.067,8.954,10.067c5.295,0,8.894-4.121,8.894-10.004
	C100.542,22.227,96.943,18.435,91.714,18.435"/>
<path style="fill:#4C4E50;" d="M133.621,44.322l-0.198-3.53c-0.848,0.984-3.921,4.316-10.327,4.316
	c-5.754,0-11.049-3.074-11.049-9.936c0-3.009,1.047-5.034,2.551-6.537c3.203-3.205,7.451-3.858,11.176-3.858h7.324v-0.393
	c0-4.643-2.942-6.212-6.866-6.212c-5.031,0-8.432,3.53-8.89,3.99l-4.183-4.447c0.26-0.325,4.575-5.754,13.533-5.754
	c4.835,0,8.234,1.244,10.589,3.596c3.203,3.203,3.398,7.063,3.398,12.358v16.406H133.621z M128.521,30.137
	c-3.532,0-8.825,0.065-8.825,4.837c0,2.941,2.288,4.314,5.164,4.314c2.876,0,4.773-0.914,6.081-2.156
	c1.439-1.309,2.026-3.009,2.157-4.903v-2.092H128.521z"/>
<path style="fill:#4C4E50;" d="M162.191,48.376c-1.699,4.185-4.642,9.022-12.028,9.022c-3.138,0-5.165-0.98-5.95-1.503l2.224-5.69
	c0.588,0.262,1.764,0.656,3.007,0.656c2.809,0,4.117-1.372,5.227-3.596c0.198-0.393,1.178-2.68,1.374-3.14l-13.402-31.053h8.369
	l8.957,22.231l8.956-22.231h8.105L162.191,48.376z"/>
<path style="fill:#72BE44;" d="M198.998,45.24c-7.124,0-10.264-4.185-10.591-4.643l-0.194,3.727h-7.257V0h7.844v16.93
	c0.394-0.522,3.857-4.968,11.179-4.968c6.472,0,14.643,4.447,14.643,16.737C214.622,37.003,209.196,45.24,198.998,45.24
	 M197.69,18.501c-5.033,0-9.021,3.857-9.021,10.264c0,6.212,3.857,10.065,8.954,10.065c5.231,0,8.894-4.052,8.894-10.065
	C206.518,22.225,202.919,18.501,197.69,18.501"/>
<path style="fill:#72BE44;" d="M235.349,48.376c-1.699,4.185-4.641,9.022-12.03,9.022c-3.136,0-5.165-0.98-5.949-1.503l2.224-5.69
	c0.589,0.262,1.764,0.656,3.007,0.656c2.811,0,4.119-1.372,5.231-3.596c0.193-0.393,1.175-2.68,1.373-3.14l-13.401-31.053h8.367
	l8.956,22.231l8.957-22.231h8.105L235.349,48.376z"/>
<path style="fill:#4C4E50;" d="M272.156,45.303c-6.667,0-9.546-3.4-10.197-4.314v15.492h-7.845V13.074h7.449l0.133,4.119
	c0.327-0.458,3.792-5.23,11.376-5.23c6.533,0,14.706,4.443,14.706,16.801C287.778,37.003,282.351,45.303,272.156,45.303
	 M270.848,18.435c-5.035,0-9.021,3.987-9.021,10.329c0,6.21,3.857,10.067,8.955,10.067c5.297,0,8.892-4.121,8.892-10.004
	C279.673,22.227,276.079,18.435,270.848,18.435"/>
<path style="fill:#4C4E50;" d="M314.52,44.324V26.737c0-2.745-0.196-5.099-1.897-6.47c-0.981-0.918-2.353-1.507-4.575-1.507
	c-1.635,0-3.728,0.589-5.229,2.092c-2.157,2.158-2.224,5.623-2.224,9.415v14.056h-7.845V0.002h7.845v16.537
	c1.114-1.307,4.183-4.576,10.133-4.576c3.072,0,6.016,0.784,8.567,3.332c2.676,2.747,3.07,6.604,3.07,10.133v18.895H314.52z"/>
<path style="fill:#4C4E50;" d="M344.134,45.303c-11.961,0-17.192-8.693-17.192-16.67c0-7.975,5.231-16.672,17.192-16.672
	c11.897,0,17.128,8.697,17.128,16.672C361.262,36.61,356.031,45.303,344.134,45.303 M350.344,20.789
	c-1.503-1.503-3.592-2.354-6.21-2.354c-2.68,0-4.773,0.851-6.212,2.354c-1.764,1.829-2.875,4.508-2.875,7.844
	c0,3.332,1.112,6.015,2.875,7.844c1.439,1.505,3.597,2.352,6.212,2.352c2.618,0,4.707-0.847,6.21-2.352
	c1.764-1.829,2.811-4.512,2.811-7.844C353.156,25.234,352.108,22.553,350.344,20.789"/>
<path style="fill:#4C4E50;" d="M388.001,44.324V26.737c0-2.745-0.193-5.099-1.895-6.47c-0.981-0.918-2.355-1.507-4.575-1.507
	c-1.637,0-3.728,0.589-5.231,2.092c-2.156,2.158-2.224,5.623-2.224,9.415v14.056h-7.842V13.074h7.452l0.132,3.921
	c0.326-0.391,3.594-5.032,10.455-5.032c3.076,0,5.952,0.784,8.502,3.332c2.681,2.747,3.069,6.604,3.069,10.133v18.895H388.001z"/>
<path style="fill:#4C4E50;" d="M408.467,31.119c0,3.463,2.549,7.975,8.757,7.975c5.427,0,8.567-3.138,9.481-4.118l4.381,4.05
	c-2.092,2.42-6.474,6.279-14.122,6.279c-11.244,0-16.537-7.715-16.537-16.541c0-8.695,5.49-16.803,16.408-16.803
	c2.81,0,7.059,0.589,10.459,3.987c4.184,4.185,4.707,9.546,4.707,15.17H408.467z M416.638,17.912c-6.21,0-8.042,5.754-8.042,7.582
	h15.691C424.287,23.273,422.651,17.912,416.638,17.912"/>
<path style="fill:#72BE44;" d="M4.359,2.783c0,0-4.357-0.002-4.354,4.349L0.002,13.23c0,0-0.002,4.356,4.357,4.358h6.091
	c0,0,4.354,0.002,4.354-4.358V7.132c0,0,0-4.347-4.35-4.349H4.359z"/>
<path style="fill:#72BE44;" d="M4.354,21.199c0,0-4.354,0.004-4.354,4.356v6.094c0,0-0.002,4.352,4.354,4.352h6.098
	c0,0,4.352,0,4.352-4.352v-6.096c0,0,0-4.354-4.352-4.354H4.354z"/>
<path style="fill:#72BE44;" d="M4.354,39.606c0,0-4.354,0.004-4.354,4.36v6.098c0,0,0,4.345,4.354,4.349l6.093-0.004
	c0,0,4.354,0.004,4.352-4.35l0.004-6.092c0,0,0-4.356-4.356-4.36H4.354z"/>
<path style="fill:#72BE44;" d="M22.78,2.785c0,0-4.355,0-4.352,4.349l-0.002,6.096c0,0,0,4.356,4.352,4.356l6.094,0.002
	c0,0,4.354-0.002,4.354-4.358V7.132c0,0,0.003-4.35-4.354-4.347H22.78z"/>
<path style="fill:#72BE44;" d="M22.777,21.203c0,0-4.352-0.002-4.352,4.358v6.092c0,0-0.002,4.349,4.35,4.352l6.093-0.004
	c0,0,4.356,0.004,4.354-4.349l0.002-6.096c0,0,0-4.354-4.354-4.358L22.777,21.203z"/>
<path style="fill:#72BE44;" d="M22.773,39.609c0,0-4.35,0-4.354,4.36l0.002,6.094c0,0-0.002,4.352,4.352,4.352h6.095
	c0,0,4.354,0,4.354-4.352l0.002-6.098c0,0,0-4.356-4.356-4.36L22.773,39.609z"/>
<path style="fill:#72BE44;" d="M41.198,2.785c0,0-4.354,0-4.354,4.35v6.096c0,0-0.002,4.356,4.354,4.36l6.091-0.004
	c0,0,4.359,0.004,4.357-4.356l0.002-6.098c0,0,0-4.349-4.354-4.35L41.198,2.785z"/>
<path style="fill:#72BE44;" d="M41.197,21.195c0,0-4.357,0.004-4.357,4.354v6.096c0,0,0,4.356,4.355,4.356h6.095
	c0,0,4.352,0.002,4.352-4.352l0.003-6.1c0,0,0.002-4.352-4.352-4.352L41.197,21.195z"/>
<path style="fill:#72BE44;" d="M41.197,39.611c0,0-4.357-0.002-4.357,4.36l-0.002,6.092c0,0,0.002,4.352,4.354,4.352h6.095
	c0,0,4.357,0,4.352-4.349l0.004-6.096c0,0,0-4.362-4.355-4.362L41.197,39.611z"/>
</svg>
