<?xml version="1.0" encoding="UTF-8"?>
<svg width="135px" height="40px" viewBox="0 0 135 40" version="1.1" xmlns="http://www.w3.org/2000/svg" xmlns:xlink="http://www.w3.org/1999/xlink">
    <!-- Generator: Sketch 56.2 (81672) - https://sketch.com -->
    <title>Download_on_the_App_Store_Badge_IT_135x40@2x</title>
    <desc>Created with Sketch.</desc>
    <g id="58.-YAP" stroke="none" stroke-width="1" fill="none" fill-rule="evenodd">
        <g id="Download_on_the_App_Store_Badge_IT_135x40" fill-rule="nonzero">
            <path d="M130.197,40 L4.729,40 C2.122,40 0,37.872 0,35.267 L0,4.726 C0,2.12 2.122,0 4.729,0 L130.197,0 C132.803,0 135,2.12 135,4.726 L135,35.267 C135,37.872 132.803,40 130.197,40 L130.197,40 Z" id="Shape" fill="#A6A6A6"></path>
            <path d="M134,35.1908501 C134,37.2953308 132.287828,39 130.170089,39 L4.83490559,39 C2.71816557,39 1,37.2953308 1,35.1908501 L1,4.8141227 C1,2.71063652 2.71816557,1 4.83490559,1 L130.16909,1 C132.287828,1 134,2.71063652 134,4.8141227 L134,35.1908501 L134,35.1908501 Z" id="Shape" fill="#000000"></path>
            <g id="Group" transform="translate(12.000000, 6.000000)" fill="#FFFFFF">
                <path d="M18.133,13.784 C18.104,10.561 20.772,8.993 20.894,8.92 C19.383,6.717 17.041,6.416 16.218,6.392 C14.251,6.185 12.343,7.569 11.341,7.569 C10.319,7.569 8.776,6.412 7.113,6.446 C4.973,6.479 2.971,7.718 1.873,9.642 C-0.393,13.565 1.297,19.33 3.468,22.501 C4.554,24.054 5.823,25.788 7.484,25.727 C9.109,25.66 9.716,24.691 11.677,24.691 C13.62,24.691 14.19,25.727 15.884,25.688 C17.628,25.66 18.726,24.128 19.774,22.561 C21.029,20.781 21.533,19.028 21.553,18.938 C21.513,18.924 18.167,17.647 18.133,13.784 Z" id="Shape"></path>
                <path d="M14.933,4.306 C15.807,3.213 16.405,1.726 16.239,0.217 C14.974,0.273 13.392,1.092 12.481,2.161 C11.675,3.103 10.955,4.647 11.141,6.099 C12.562,6.205 14.021,5.382 14.933,4.306 Z" id="Shape"></path>
            </g>
            <g id="Group" transform="translate(42.000000, 18.000000)" fill="#FFFFFF">
                <path d="M11.649,13.504 L9.378,13.504 L8.134,9.595 L3.81,9.595 L2.625,13.504 L0.414,13.504 L4.698,0.196 L7.344,0.196 L11.649,13.504 Z M7.759,7.955 L6.634,4.48 C6.515,4.125 6.292,3.289 5.963,1.973 L5.923,1.973 C5.792,2.539 5.581,3.375 5.291,4.48 L4.186,7.955 L7.759,7.955 Z" id="Shape"></path>
                <path d="M22.666,8.588 C22.666,10.22 22.225,11.51 21.343,12.457 C20.553,13.3 19.572,13.721 18.401,13.721 C17.137,13.721 16.229,13.267 15.676,12.359 L15.636,12.359 L15.636,17.414 L13.504,17.414 L13.504,7.067 C13.504,6.041 13.477,4.988 13.425,3.908 L15.3,3.908 L15.419,5.429 L15.459,5.429 C16.17,4.283 17.249,3.711 18.697,3.711 C19.829,3.711 20.774,4.158 21.53,5.053 C22.288,5.949 22.666,7.127 22.666,8.588 Z M20.494,8.666 C20.494,7.732 20.284,6.962 19.862,6.356 C19.401,5.724 18.782,5.408 18.006,5.408 C17.48,5.408 17.002,5.584 16.575,5.931 C16.147,6.281 15.867,6.738 15.736,7.304 C15.67,7.568 15.637,7.784 15.637,7.954 L15.637,9.554 C15.637,10.252 15.851,10.841 16.279,11.322 C16.707,11.803 17.263,12.043 17.947,12.043 C18.75,12.043 19.375,11.733 19.822,11.115 C20.27,10.496 20.494,9.68 20.494,8.666 Z" id="Shape"></path>
                <path d="M33.703,8.588 C33.703,10.22 33.262,11.51 32.379,12.457 C31.59,13.3 30.609,13.721 29.438,13.721 C28.174,13.721 27.266,13.267 26.714,12.359 L26.675,12.359 L26.675,17.414 L24.543,17.414 L24.543,7.067 C24.543,6.041 24.516,4.988 24.464,3.908 L26.339,3.908 L26.458,5.429 L26.498,5.429 C27.208,4.283 28.287,3.711 29.736,3.711 C30.867,3.711 31.812,4.158 32.57,5.053 C33.324,5.949 33.703,7.127 33.703,8.588 Z M31.531,8.666 C31.531,7.732 31.32,6.962 30.898,6.356 C30.437,5.724 29.82,5.408 29.043,5.408 C28.516,5.408 28.039,5.584 27.611,5.931 C27.183,6.281 26.904,6.738 26.773,7.304 C26.708,7.568 26.674,7.784 26.674,7.954 L26.674,9.554 C26.674,10.252 26.888,10.841 27.314,11.322 C27.742,11.802 28.298,12.043 28.984,12.043 C29.787,12.043 30.412,11.733 30.859,11.115 C31.307,10.496 31.531,9.68 31.531,8.666 Z" id="Shape"></path>
                <path d="M46.043,9.772 C46.043,10.904 45.65,11.825 44.861,12.536 C43.994,13.313 42.787,13.701 41.236,13.701 C39.804,13.701 38.656,13.425 37.787,12.872 L38.281,11.095 C39.217,11.661 40.244,11.945 41.363,11.945 C42.166,11.945 42.791,11.763 43.24,11.401 C43.687,11.039 43.91,10.553 43.91,9.947 C43.91,9.407 43.726,8.952 43.357,8.583 C42.99,8.214 42.377,7.871 41.521,7.554 C39.191,6.685 38.027,5.412 38.027,3.738 C38.027,2.644 38.435,1.747 39.252,1.049 C40.066,0.35 41.152,0.001 42.51,0.001 C43.721,0.001 44.727,0.212 45.53,0.633 L44.997,2.371 C44.247,1.963 43.399,1.759 42.45,1.759 C41.7,1.759 41.114,1.944 40.694,2.312 C40.339,2.641 40.161,3.042 40.161,3.517 C40.161,4.043 40.364,4.478 40.772,4.82 C41.127,5.136 41.772,5.478 42.708,5.847 C43.853,6.308 44.694,6.847 45.235,7.465 C45.773,8.081 46.043,8.852 46.043,9.772 Z" id="Shape"></path>
                <path d="M53.092,5.508 L50.742,5.508 L50.742,10.167 C50.742,11.352 51.156,11.944 51.986,11.944 C52.367,11.944 52.683,11.911 52.933,11.845 L52.992,13.464 C52.572,13.621 52.019,13.7 51.334,13.7 C50.492,13.7 49.834,13.443 49.359,12.93 C48.886,12.416 48.648,11.554 48.648,10.343 L48.648,5.506 L47.248,5.506 L47.248,3.906 L48.648,3.906 L48.648,2.149 L50.742,1.517 L50.742,3.906 L53.092,3.906 L53.092,5.508 Z" id="Shape"></path>
                <path d="M63.695,8.627 C63.695,10.102 63.273,11.313 62.431,12.26 C61.548,13.235 60.376,13.721 58.915,13.721 C57.507,13.721 56.386,13.254 55.55,12.32 C54.714,11.386 54.296,10.207 54.296,8.786 C54.296,7.299 54.726,6.081 55.589,5.134 C56.45,4.186 57.612,3.712 59.073,3.712 C60.481,3.712 61.614,4.179 62.469,5.114 C63.287,6.021 63.695,7.192 63.695,8.627 Z M61.482,8.696 C61.482,7.811 61.293,7.052 60.91,6.419 C60.463,5.653 59.824,5.271 58.996,5.271 C58.139,5.271 57.488,5.654 57.041,6.419 C56.658,7.053 56.469,7.824 56.469,8.736 C56.469,9.621 56.658,10.38 57.041,11.012 C57.502,11.778 58.146,12.16 58.977,12.16 C59.791,12.16 60.43,11.77 60.891,10.992 C61.285,10.347 61.482,9.58 61.482,8.696 Z" id="Shape"></path>
                <path d="M70.625,5.783 C70.414,5.744 70.189,5.724 69.953,5.724 C69.203,5.724 68.623,6.007 68.215,6.574 C67.86,7.074 67.682,7.706 67.682,8.469 L67.682,13.504 L65.551,13.504 L65.571,6.93 C65.571,5.824 65.544,4.817 65.491,3.909 L67.348,3.909 L67.426,5.745 L67.485,5.745 C67.71,5.114 68.065,4.606 68.551,4.225 C69.026,3.882 69.539,3.711 70.092,3.711 C70.289,3.711 70.467,3.725 70.625,3.75 L70.625,5.783 Z" id="Shape"></path>
                <path d="M80.16,8.252 C80.16,8.634 80.135,8.956 80.082,9.219 L73.686,9.219 C73.711,10.167 74.02,10.892 74.614,11.392 C75.153,11.839 75.85,12.063 76.706,12.063 C77.653,12.063 78.517,11.912 79.294,11.609 L79.628,13.089 C78.72,13.485 77.648,13.682 76.411,13.682 C74.923,13.682 73.755,13.244 72.905,12.369 C72.057,11.494 71.632,10.319 71.632,8.845 C71.632,7.398 72.027,6.193 72.818,5.232 C73.646,4.206 74.765,3.693 76.173,3.693 C77.556,3.693 78.603,4.206 79.314,5.232 C79.877,6.047 80.16,7.055 80.16,8.252 Z M78.127,7.699 C78.141,7.067 78.002,6.521 77.713,6.06 C77.344,5.467 76.777,5.171 76.014,5.171 C75.317,5.171 74.75,5.46 74.317,6.04 C73.962,6.501 73.751,7.054 73.686,7.698 L78.127,7.698 L78.127,7.699 Z" id="Shape"></path>
            </g>
            <g id="Group" transform="translate(43.000000, 7.000000)" fill="#FFFFFF">
                <path d="M4,4.99316696 C4,5.57234106 3.80961776,6.04233512 3.42786683,6.40522876 C3.00764488,6.80139632 2.4217016,7 1.67102343,7 C0.97755857,7 0.419235512,6.85858586 0,6.57575758 L0.238717633,5.66800357 C0.692478422,5.95707071 1.18964242,6.10160428 1.73316893,6.10160428 C2.12281134,6.10160428 2.42466091,6.0090612 2.64266338,5.82293523 C2.85967941,5.63784908 2.96720099,5.39037433 2.96720099,5.08051099 C2.96720099,4.80392157 2.8784217,4.57204397 2.6998767,4.38383838 C2.52133169,4.1956328 2.22540074,4.01990493 1.81109741,3.8587344 C0.68162762,3.41473559 0.117385943,2.76485443 0.117385943,1.90909091 C0.117385943,1.3496732 0.314673243,0.892156863 0.710234279,0.53550208 C1.10579531,0.178847296 1.6325524,0 2.28951911,0 C2.87644883,0 3.3647349,0.108140226 3.75339088,0.323380867 L3.49494451,1.21137849 C3.13094945,1.00237671 2.71960543,0.898395722 2.25992602,0.898395722 C1.89691739,0.898395722 1.61282367,0.993018419 1.40863132,1.18018419 C1.23699137,1.34863339 1.15018496,1.55347594 1.15018496,1.79575163 C1.15018496,2.06506239 1.24981504,2.28654189 1.44710234,2.46122995 C1.61972873,2.62240048 1.93144266,2.79812834 2.38520345,2.98529412 C2.93958076,3.22133096 3.34796547,3.49688057 3.60937115,3.81194296 C3.86979038,4.12908497 4,4.5221331 4,4.99316696 Z" id="Shape"></path>
                <path d="M10,2.2261711 L9.77910773,3.03607165 C9.48966268,2.90465382 9.15995647,2.83843554 8.7867247,2.83843554 C8.28726877,2.83843554 7.89118607,2.99532193 7.59847661,3.30807598 C7.30685528,3.62083003 7.16104461,4.01813973 7.16104461,4.49898635 C7.16104461,5.00632028 7.31447225,5.40770496 7.62023939,5.70415912 C7.92600653,6.00061328 8.31556039,6.14934974 8.7867247,6.14934974 C9.13819369,6.14934974 9.48313384,6.0841502 9.82045702,5.95171363 L9.97932535,6.75244549 C9.60609358,6.91748183 9.13601741,7 8.56474429,7 C7.78346028,7 7.16104461,6.77791406 6.69640914,6.33272345 C6.23177367,5.88753283 6,5.29360576 6,4.54890475 C6,3.80522248 6.2491839,3.19295804 6.74863983,2.7161864 C7.24809576,2.23941475 7.91947769,2 8.76496192,2 C9.2437432,1.99899144 9.65614799,2.07437841 10,2.2261711 Z" id="Shape"></path>
                <path d="M14,6.89119382 L13.0271388,6.89119382 L12.9475317,6.33902786 L12.9175498,6.33902786 C12.5836133,6.77933699 12.1090721,7 11.4939261,7 C11.032825,7 10.6606358,6.85458613 10.3804601,6.56579215 C10.1261308,6.30343706 10,5.97701851 10,5.58958715 C10,5.00386414 10.2481261,4.55745373 10.74748,4.24832215 C11.2447661,3.93919056 11.9457224,3.78767541 12.8482812,3.79479357 L12.8482812,3.70530811 C12.8482812,3.0738255 12.5112432,2.75859264 11.8371672,2.75859264 C11.3564228,2.75859264 10.9325407,2.87756762 10.5665547,3.11348383 L10.3463427,2.41387025 C10.7991729,2.13829571 11.3584906,2 12.0180925,2 C13.2928405,2 13.9307315,2.66097214 13.9307315,3.98291641 L13.9307315,5.74822046 C13.9296976,6.22717104 13.9534764,6.60850112 14,6.89119382 Z M12.8761954,5.24384787 L12.8761954,4.50457596 C11.6800207,4.48423836 11.0824502,4.80658938 11.0824502,5.47061216 C11.0824502,5.72076469 11.1517188,5.90787065 11.2912897,6.03294692 C11.4308607,6.15802318 11.6076506,6.22005288 11.8195916,6.22005288 C12.058413,6.22005288 12.2796588,6.14582062 12.483329,5.99837299 C12.6869992,5.85092536 12.8110623,5.66178564 12.8575859,5.43095383 C12.8699922,5.37909294 12.8761954,5.31604637 12.8761954,5.24384787 Z" id="Shape"></path>
                <path d="M19,3.0579921 C18.8762887,3.0372064 18.7466297,3.02785284 18.6074544,3.02785284 C18.1697066,3.02785284 17.8318795,3.17231345 17.591594,3.46123467 C17.3846154,3.71689877 17.2799366,4.03907711 17.2799366,4.42880898 L17.2799366,7 L16.0333069,7 L16.0452022,3.64310954 C16.0452022,3.0787778 16.0297383,2.56433174 16,2.10081064 L17.0836638,2.10081064 L17.1300555,3.03824569 L17.1645519,3.03824569 C17.2942109,2.71502806 17.5023791,2.4562461 17.7866772,2.26189981 C18.0638382,2.08729994 18.3636003,2 18.6871531,2 C18.8025377,2 18.9072165,2.00623571 18.9988105,2.01974641 L18.9988105,3.0579921 L19,3.0579921 Z" id="Shape"></path>
                <path d="M21,0.643821391 C21,0.839044652 20.9516003,0.995846314 20.8563622,1.11734164 C20.7603435,1.23883697 20.6370023,1.29906542 20.4847775,1.29906542 C20.3481655,1.29906542 20.2334114,1.23676012 20.1405152,1.11318795 C20.0468384,0.988577362 20,0.832814123 20,0.644859813 C20,0.456905504 20.0483997,0.302180685 20.1444184,0.18172378 C20.2404372,0.0612668744 20.3583138,0 20.5003903,0 C20.6416862,0 20.7603435,0.0612668744 20.8563622,0.18172378 C20.9516003,0.301142264 21,0.455867082 21,0.643821391 Z M20.9086651,7 L20.0905543,7 L20.0905543,2.10488058 L20.9086651,2.10488058 L20.9086651,7 Z" id="Shape"></path>
                <path d="M27,2.2261711 L26.7791678,3.03607165 C26.4898015,2.90465382 26.1590971,2.83843554 25.7859668,2.83843554 C25.2866467,2.83843554 24.8906717,2.99532193 24.5980419,3.30807598 C24.3064999,3.62083003 24.1607289,4.01813973 24.1607289,4.49898635 C24.1607289,5.00632028 24.3141148,5.40770496 24.6197987,5.70415912 C24.9254827,6.00061328 25.3149306,6.14934974 25.7859668,6.14934974 C26.1373402,6.14934974 26.4821866,6.0841502 26.819418,5.95171363 L26.9782431,6.75244549 C26.6051129,6.91748183 26.1340767,7 25.5640468,7 C24.7829753,7 24.1607289,6.77791406 23.6962197,6.33272345 C23.2317106,5.88753283 23,5.29360576 23,4.54890475 C23,3.80522248 23.2491161,3.19295804 23.7484362,2.7161864 C24.2477563,2.23941475 24.9189557,2 25.76421,2 C26.242861,1.99899144 26.6551537,2.07437841 27,2.2261711 Z" id="Shape"></path>
                <path d="M31,6.89119382 L30.0268873,6.89119382 L29.9482937,6.33902786 L29.918304,6.33902786 C29.5832472,6.77933699 29.1085832,7 28.4943123,7 C28.0320579,7 27.6597725,6.85458613 27.3795243,6.56579215 C27.1251293,6.30343706 27,5.97701851 27,5.58958715 C27,5.00386414 27.2481903,4.55745373 27.7476732,4.24832215 C28.2440538,3.93919056 28.9451913,3.78767541 29.8479835,3.79479357 L29.8479835,3.70530811 C29.8479835,3.0738255 29.5108583,2.75859264 28.8376422,2.75859264 C28.3567735,2.75859264 27.9327818,2.87756762 27.565667,3.11348383 L27.3453981,2.41387025 C27.7993795,2.13829571 28.3578077,2 29.0175801,2 C30.2936918,2 30.9307135,2.66097214 30.9307135,3.98291641 L30.9307135,5.74822046 C30.9296794,6.22717104 30.9534643,6.60850112 31,6.89119382 Z M29.876939,5.24384787 L29.876939,4.50457596 C28.6794209,4.48423836 28.081696,4.80658938 28.081696,5.47061216 C28.081696,5.72076469 28.1520165,5.90787065 28.2916236,6.03294692 C28.4312306,6.15802318 28.6070321,6.22005288 28.8190279,6.22005288 C29.0589452,6.22005288 29.2792141,6.14582062 29.483971,5.99837299 C29.6856256,5.84990848 29.8107549,5.66178564 29.8572906,5.43095383 C29.8717684,5.37909294 29.876939,5.31604637 29.876939,5.24384787 Z" id="Shape"></path>
                <path d="M38,5.5207824 C38,5.96699267 37.8494826,6.32559087 37.5446849,6.59555827 C37.2417686,6.86552567 36.8203198,7 36.2859831,7 C35.780809,7 35.3527752,6.8909943 35,6.67400163 L35.2097836,5.88345558 C35.5493885,6.10757946 35.911571,6.2196414 36.2953904,6.2196414 C36.8005644,6.2196414 37.0526811,6.01894866 37.0526811,5.61654442 C37.0526811,5.4392828 36.9971778,5.29258354 36.8889934,5.17644662 C36.7789276,5.06132844 36.5841957,4.94722901 36.3047977,4.83618582 C35.5126999,4.51935615 35.1175917,4.05888346 35.1175917,3.45273024 C35.1175917,3.03810106 35.2643462,2.69172779 35.5550329,2.41462918 C35.8476011,2.13854931 36.2351834,2 36.7140169,2 C37.1533396,2 37.5258702,2.09678077 37.8363123,2.2903423 L37.6265287,3.05643847 C37.3396049,2.87204564 37.0385701,2.7803586 36.7224835,2.7803586 C36.5164628,2.7803586 36.3546566,2.83333333 36.2389464,2.93826406 C36.1232361,3.04421353 36.0658514,3.17766911 36.0658514,3.34270579 C36.0658514,3.50672372 36.1260583,3.64119804 36.247413,3.74612877 C36.349953,3.84494703 36.5503293,3.95293399 36.8504233,4.07110839 C37.6180621,4.38691932 38,4.8698044 38,5.5207824 Z" id="Shape"></path>
                <path d="M44,6.88902717 L43.1013645,6.88902717 L43.0438596,6.14436839 L43.0243665,6.14436839 C42.702729,6.71478946 42.2173489,7 41.5682261,7 C41.1150097,7 40.7534113,6.84857913 40.4814815,6.54677453 C40.1598441,6.17755652 40,5.62061813 40,4.87699647 L40,2 L41.0204678,2 L41.0204678,4.69653599 C41.0204678,5.63617507 41.3235867,6.10495748 41.9288499,6.10495748 C42.3840156,6.10495748 42.6978558,5.87056627 42.8752437,5.40074673 C42.9191033,5.28043974 42.9415205,5.14250156 42.9415205,4.9879693 L42.9415205,2 L43.9619883,2 L43.9619883,5.48060568 C43.9619883,5.94316532 43.9746589,6.41298486 44,6.88902717 Z" id="Shape"></path>
            </g>
        </g>
    </g>
</svg>