<svg width="109" height="46" viewBox="0 0 109 46" fill="none" xmlns="http://www.w3.org/2000/svg">
<g clip-path="url(#clip0_690_1674)">
<path d="M8.609 40.553C12.6864 43.722 17.7405 45.3713 22.9023 45.2173C28.064 45.0633 33.0108 43.1155 36.892 39.709C36.935 39.666 36.914 39.644 36.87 39.666C35.118 40.834 30.121 43.397 22.247 43.397C15.401 43.397 11.085 41.872 8.641 40.509C8.587 40.498 8.565 40.532 8.609 40.553ZM23.751 41.698C29.224 41.698 35.237 40.205 38.839 37.253C39.954 36.3286 40.8899 35.2074 41.6 33.945C42.1182 33.0544 42.5665 32.1249 42.941 31.165C42.963 31.122 42.93 31.1 42.898 31.154C39.556 36.075 29.865 39.147 19.872 39.147C12.799 39.147 5.195 36.887 2.221 32.571C2.189 32.528 2.167 32.549 2.178 32.593C4.936 38.477 13.361 41.693 23.755 41.7M17.77 31.911C6.392 31.911 1.017 26.611 0.043 22.988C0.032 22.945 0 22.956 0 22.999C0.00316454 24.2862 0.115231 25.5707 0.335 26.839C0.534877 27.5689 0.918401 28.2354 1.449 28.775C4.207 31.652 11.075 35.675 22.972 35.675C39.185 35.675 42.894 30.275 43.651 28.493C44.2367 26.722 44.5147 24.8638 44.473 22.999C44.473 22.534 44.462 22.155 44.441 21.799C44.441 21.734 44.409 21.734 44.398 21.788C43.587 26.136 29.743 31.911 17.77 31.911ZM2.152 13.46C1.45662 14.9335 0.923483 16.4783 0.562 18.067C0.45954 18.4294 0.502222 18.8175 0.681 19.149C2.044 22.049 8.944 26.677 25.038 26.677C34.859 26.677 42.484 24.265 43.727 19.863C43.9678 18.9348 43.9491 17.9583 43.673 17.04C43.3103 15.713 42.8214 14.4238 42.213 13.19C42.191 13.158 42.17 13.158 42.17 13.201C42.365 18.977 26.26 22.701 18.138 22.701C9.338 22.701 1.99 19.201 1.99 14.762C2.00009 14.3222 2.0656 13.8854 2.185 13.462C2.207 13.44 2.163 13.43 2.153 13.462M36.924 6.37501C37.0195 6.53104 37.0684 6.71111 37.065 6.89401C37.065 9.36001 29.505 13.729 17.478 13.729C8.642 13.729 6.987 10.452 6.987 8.36401C7.01586 7.51903 7.3412 6.71116 7.906 6.08201C7.938 6.03901 7.906 6.01701 7.874 6.05001C6.71814 7.02387 5.66681 8.11542 4.737 9.30701C4.38009 9.68408 4.13317 10.1516 4.023 10.659C4.023 14.985 14.86 18.111 24.994 18.111C35.794 18.111 40.612 14.585 40.612 11.492C40.612 10.392 40.179 9.74001 39.076 8.48501C38.4144 7.73489 37.7102 7.02339 36.967 6.35401C36.924 6.32201 36.902 6.34201 36.924 6.37501ZM33.614 3.91001C30.1479 1.84267 26.1842 0.758453 22.1484 0.773781C18.1127 0.789109 14.1573 1.9034 10.707 3.99701C9.707 4.61301 9.139 5.11101 9.139 5.74901C9.139 7.62001 13.519 9.64301 21.296 9.64301C28.986 9.64301 34.956 7.43701 34.956 5.30601C34.956 4.79801 34.513 4.44101 33.615 3.90601" fill="#0AA8E0"/>
<path d="M57.355 4.11502H59.172L63.313 15.093H61.388L60.479 12.476H55.993L55.093 15.093H53.213L57.355 4.11502ZM56.544 10.907H59.951L58.242 5.96402L56.544 10.907Z" fill="white"/>
<path d="M65.511 5.75902H62.05V4.11502H70.789V5.75902H67.328V15.093H65.522V5.75902H65.511Z" fill="white"/>
<path d="M74.544 15.266C73.6519 15.3096 72.7746 15.025 72.078 14.466C71.7738 14.2051 71.5323 13.879 71.3713 13.512C71.2103 13.1451 71.134 12.7465 71.148 12.346C71.1511 11.7095 71.368 11.0924 71.764 10.594C72.2579 9.98834 72.878 9.49762 73.581 9.15601C73.1683 8.74331 72.8119 8.27796 72.521 7.77201C72.3268 7.39407 72.2267 6.9749 72.229 6.55001C72.2173 6.19022 72.2882 5.83253 72.4363 5.50439C72.5843 5.17625 72.8055 4.88638 73.083 4.65701C73.7136 4.19558 74.4725 3.94237 75.2538 3.93269C76.0352 3.92301 76.8001 4.15734 77.442 4.60301C77.7049 4.8185 77.9148 5.09153 78.0554 5.40104C78.196 5.71054 78.2636 6.04823 78.253 6.38801C78.253 7.44801 77.442 8.41101 75.809 9.28801L77.842 11.44C78.07 11.1059 78.2793 10.7593 78.469 10.402L79.107 9.19101H80.74L79.81 10.891C79.5253 11.4202 79.2111 11.933 78.869 12.427L81.454 15.077H79.354L77.926 13.617C77.5029 14.128 76.9804 14.5475 76.39 14.85C75.8193 15.1412 75.1845 15.2842 74.544 15.266ZM74.749 13.86C75.1807 13.8529 75.6046 13.7445 75.9867 13.5435C76.3689 13.3426 76.6985 13.0547 76.949 12.703L74.449 10.096C73.9903 10.359 73.5836 10.7037 73.249 11.113C72.9982 11.4249 72.861 11.8128 72.86 12.213C72.8531 12.4364 72.8949 12.6586 72.9827 12.8641C73.0704 13.0696 73.2019 13.2535 73.368 13.403C73.7549 13.7193 74.2448 13.882 74.744 13.86H74.749ZM73.84 6.51601C73.8397 6.79397 73.9143 7.06687 74.056 7.30601C74.3176 7.70244 74.6192 8.07103 74.956 8.40601C75.4384 8.14428 75.8795 7.8127 76.265 7.42201C76.5122 7.17 76.655 6.83389 76.665 6.48101C76.671 6.31864 76.6412 6.15694 76.5776 6.00743C76.514 5.85792 76.4181 5.72427 76.297 5.61601C76.0205 5.38968 75.6698 5.2742 75.313 5.29201C74.9275 5.27314 74.548 5.39187 74.242 5.62701C74.1102 5.73368 74.005 5.86952 73.9347 6.0238C73.8645 6.17808 73.831 6.34658 73.837 6.51601H73.84Z" fill="white"/>
<path d="M83.431 5.75902H79.97V4.11502H88.709V5.75902H85.248V15.093H83.442V5.75902H83.431Z" fill="white"/>
<path d="M53.343 19.03H56.35C57.2421 18.9741 58.1225 19.2561 58.816 19.82C59.1117 20.0942 59.3435 20.4301 59.4949 20.8039C59.6463 21.1778 59.7136 21.5803 59.692 21.983C59.7109 22.394 59.6402 22.8042 59.4848 23.1851C59.3294 23.566 59.093 23.9086 58.792 24.189C58.1104 24.7608 57.2362 25.0509 56.348 25H54.412V28.5H53.343V19.03ZM54.414 24.005H56.296C56.909 24.047 57.5155 23.8579 57.996 23.475C58.2002 23.2858 58.3604 23.0539 58.4651 22.7959C58.5698 22.5379 58.6166 22.2601 58.602 21.982C58.6184 21.7113 58.5734 21.4403 58.4704 21.1894C58.3674 20.9385 58.209 20.7141 58.007 20.533C57.5197 20.1573 56.9119 19.9727 56.298 20.014H54.416L54.414 24.005Z" fill="white"/>
<path d="M64.981 22.372C64.77 22.3375 64.5567 22.3194 64.343 22.318C63.5599 22.3388 62.8109 22.6421 62.234 23.172V28.504H61.217V21.485H62.082L62.19 22.339C62.8123 21.7054 63.66 21.3437 64.548 21.333C64.7407 21.3345 64.9328 21.3562 65.121 21.398L64.981 22.372Z" fill="white"/>
<path d="M66.6559 25.357C66.6945 26.01 66.9718 26.6261 67.435 27.088C67.9012 27.5201 68.5198 27.7495 69.1549 27.726C69.5296 27.7292 69.9034 27.6893 70.269 27.607C70.6241 27.504 70.9655 27.3586 71.2859 27.174L71.621 27.964C71.2548 28.1925 70.8577 28.3673 70.4419 28.483C69.9967 28.5966 69.5384 28.6511 69.079 28.645C68.4338 28.6589 67.7974 28.4942 67.24 28.169C66.7276 27.8606 66.3118 27.4148 66.04 26.882C65.75 26.3017 65.6052 25.6597 65.618 25.011C65.6069 24.3429 65.759 23.6821 66.061 23.086C66.3249 22.558 66.7289 22.1128 67.2289 21.799C67.712 21.4979 68.2708 21.3405 68.8399 21.345C69.3957 21.3325 69.9435 21.4789 70.4189 21.767C70.8688 22.05 71.2288 22.4551 71.457 22.935C71.7093 23.4571 71.8353 24.0312 71.8249 24.611C71.8249 24.86 71.814 25.119 71.793 25.368H66.6559V25.357ZM68.8409 22.231C68.5706 22.2261 68.3022 22.2775 68.0528 22.3818C67.8033 22.4861 67.5783 22.6411 67.3919 22.837C66.9777 23.2871 66.723 23.8609 66.667 24.47H70.777V24.405C70.7804 24.016 70.6952 23.6313 70.5279 23.28C70.3799 22.9607 70.1436 22.6904 69.847 22.501C69.5425 22.3211 69.1946 22.2278 68.8409 22.231Z" fill="white"/>
<path d="M73.7419 28.494V22.351H72.433V21.475H73.7419V20.848C73.7007 20.1469 73.9245 19.4559 74.369 18.912C74.5863 18.6758 74.8533 18.4906 75.1506 18.3695C75.448 18.2485 75.7684 18.1947 76.089 18.212C76.5508 18.2107 77.0065 18.3183 77.4189 18.526L77.214 19.326C76.8835 19.1946 76.5316 19.1251 76.176 19.121C75.9805 19.1095 75.785 19.1435 75.6049 19.2204C75.4247 19.2972 75.2649 19.4149 75.138 19.564C74.8731 19.9348 74.7431 20.3851 74.77 20.84V21.478H76.976V22.354H74.77V28.497L73.7419 28.494Z" fill="white"/>
<path d="M78.532 25.357C78.5705 26.0101 78.8478 26.6261 79.311 27.088C79.7773 27.5201 80.3958 27.7495 81.031 27.726C81.4057 27.7292 81.7795 27.6893 82.145 27.607C82.5002 27.504 82.8416 27.3587 83.162 27.174L83.497 27.964C83.1309 28.1926 82.7338 28.3673 82.318 28.483C81.8727 28.5966 81.4145 28.6511 80.955 28.645C80.3098 28.6589 79.6734 28.4942 79.116 28.169C78.6036 27.8606 78.1879 27.4148 77.916 26.882C77.626 26.3017 77.4812 25.6597 77.494 25.011C77.483 24.3429 77.635 23.6821 77.937 23.086C78.201 22.5581 78.6051 22.1128 79.105 21.799C79.5884 21.4977 80.1475 21.3403 80.717 21.345C81.2728 21.3325 81.8206 21.4789 82.296 21.767C82.7458 22.05 83.1059 22.4551 83.334 22.935C83.5863 23.4571 83.7124 24.0312 83.702 24.611C83.702 24.86 83.691 25.119 83.67 25.368H78.533L78.532 25.357ZM80.717 22.231C80.4467 22.2261 80.1783 22.2775 79.9288 22.3818C79.6794 22.4861 79.4543 22.6411 79.268 22.837C78.8537 23.287 78.5989 23.8609 78.543 24.47H82.653V24.405C82.6565 24.016 82.5713 23.6313 82.404 23.28C82.2559 22.9607 82.0197 22.6904 81.723 22.501C81.4185 22.3211 81.0707 22.2278 80.717 22.231Z" fill="white"/>
<path d="M89.033 22.372C88.8221 22.3375 88.6088 22.3194 88.395 22.318C87.612 22.3388 86.8629 22.6421 86.286 23.172V28.504H85.269V21.485H86.134L86.242 22.339C86.8643 21.7054 87.712 21.3437 88.6 21.333C88.7928 21.3344 88.9849 21.3562 89.173 21.398L89.033 22.372Z" fill="white"/>
<path d="M94.334 22.372C94.123 22.3375 93.9097 22.3194 93.696 22.318C92.913 22.3388 92.1639 22.6421 91.587 23.172V28.504H90.57V21.485H91.435L91.543 22.339C92.1652 21.7053 93.013 21.3436 93.901 21.333C94.0938 21.3345 94.2858 21.3562 94.474 21.398L94.334 22.372Z" fill="white"/>
<path d="M96.119 25.357C96.1575 26.0101 96.4347 26.6261 96.898 27.088C97.3642 27.5201 97.9828 27.7495 98.618 27.726C98.9927 27.7292 99.3664 27.6893 99.732 27.607C100.087 27.504 100.429 27.3586 100.749 27.174L101.084 27.964C100.718 28.1926 100.321 28.3674 99.905 28.483C99.4598 28.5966 99.0014 28.6511 98.542 28.645C97.8968 28.6589 97.2604 28.4942 96.703 28.169C96.1906 27.8606 95.7748 27.4148 95.503 26.882C95.213 26.3017 95.0682 25.6597 95.081 25.011C95.0699 24.3429 95.222 23.6821 95.524 23.086C95.788 22.558 96.192 22.1128 96.692 21.799C97.1751 21.4979 97.7338 21.3405 98.303 21.345C98.8588 21.3325 99.4066 21.4789 99.882 21.767C100.332 22.0497 100.692 22.4549 100.92 22.935C101.172 23.4571 101.298 24.0312 101.288 24.611C101.288 24.86 101.277 25.119 101.256 25.368H96.119V25.357ZM98.304 22.231C98.0337 22.2261 97.7653 22.2775 97.5159 22.3818C97.2664 22.4861 97.0414 22.6411 96.855 22.837C96.4407 23.287 96.1859 23.8609 96.13 24.47H100.24V24.405C100.243 24.016 100.158 23.6313 99.991 23.28C99.843 22.9607 99.6066 22.6904 99.31 22.501C99.0055 22.3211 98.6577 22.2278 98.304 22.231Z" fill="white"/>
<path d="M108.826 18.359V28.504H107.961L107.861 27.769C107.535 28.0533 107.163 28.2802 106.761 28.44C106.364 28.5763 105.947 28.6423 105.528 28.635C104.972 28.6449 104.427 28.4782 103.971 28.159C103.52 27.8319 103.168 27.3865 102.954 26.872C102.706 26.2799 102.585 25.6427 102.597 25.001C102.585 24.3328 102.725 23.6707 103.008 23.065C103.249 22.5383 103.635 22.0917 104.122 21.778C104.601 21.4776 105.157 21.3236 105.722 21.335C106.479 21.335 107.216 21.5806 107.822 22.035V18.359H108.826ZM105.754 27.725C106.113 27.7262 106.469 27.6601 106.803 27.53C107.17 27.3761 107.509 27.1644 107.809 26.903V23.009C107.537 22.7683 107.226 22.5746 106.89 22.436C106.572 22.3009 106.23 22.2311 105.884 22.231C105.569 22.2188 105.256 22.2798 104.969 22.4092C104.681 22.5387 104.428 22.733 104.229 22.977C103.792 23.5538 103.574 24.2666 103.613 24.989C103.578 25.6958 103.784 26.3936 104.197 26.968C104.378 27.2085 104.613 27.4025 104.884 27.5341C105.155 27.6658 105.453 27.7312 105.754 27.725Z" fill="white"/>
<path d="M60.969 36.637C60.9925 37.5201 60.7916 38.3947 60.385 39.179C60.015 39.8735 59.4465 40.442 58.752 40.812C57.9938 41.2024 57.1495 41.3957 56.297 41.374H53.333V31.911H56.297C57.1666 31.8883 58.0274 32.0894 58.797 32.495C59.4891 32.8712 60.0511 33.4482 60.409 34.15C60.7987 34.9199 60.9911 35.7744 60.969 36.637ZM59.877 36.637C59.9079 36.1372 59.8396 35.6363 59.6762 35.163C59.5129 34.6897 59.2576 34.2533 58.925 33.879C58.5782 33.5399 58.1642 33.2771 57.7097 33.1077C57.2551 32.9382 56.7702 32.8657 56.286 32.895H54.404V40.395H56.286C56.7701 40.4232 57.2548 40.3503 57.7091 40.1809C58.1635 40.0114 58.5775 39.7493 58.925 39.411C59.5915 38.6457 59.9328 37.6503 59.876 36.637H59.877Z" fill="white"/>
<path d="M63.292 38.228C63.3307 38.8807 63.6079 39.4964 64.071 39.958C64.5372 40.3901 65.1558 40.6195 65.791 40.596C66.1657 40.5992 66.5394 40.5593 66.905 40.477C67.2601 40.3741 67.6016 40.2287 67.922 40.044L68.257 40.834C67.8909 41.0625 67.4938 41.2373 67.078 41.353C66.6327 41.4667 66.1744 41.5211 65.715 41.515C65.0698 41.5289 64.4334 41.3642 63.876 41.039C63.3636 40.7306 62.9478 40.2847 62.676 39.752C62.386 39.1717 62.2412 38.5296 62.254 37.881C62.2429 37.2129 62.395 36.5521 62.697 35.956C62.9609 35.428 63.3649 34.9827 63.865 34.669C64.348 34.3679 64.9068 34.2105 65.476 34.215C66.0318 34.2025 66.5795 34.3489 67.055 34.637C67.505 34.9197 67.8651 35.3249 68.093 35.805C68.3453 36.3271 68.4713 36.9012 68.461 37.481C68.461 37.73 68.45 37.989 68.429 38.238H63.292V38.228ZM65.477 35.102C65.2066 35.0971 64.9383 35.1485 64.6888 35.2528C64.4394 35.3571 64.2144 35.5121 64.028 35.708C63.6137 36.158 63.3589 36.7319 63.303 37.341H67.413V37.276C67.4164 36.887 67.3313 36.5022 67.164 36.151C67.016 35.8317 66.7797 35.5614 66.483 35.372C66.1785 35.1921 65.8306 35.0987 65.477 35.102Z" fill="white"/>
<path d="M71.927 41.505C71.3406 41.537 70.7642 41.3434 70.316 40.964C70.1173 40.7701 69.9624 40.5359 69.8617 40.2772C69.761 40.0185 69.7168 39.7412 69.732 39.464C69.7141 39.1668 69.7619 38.8693 69.8722 38.5927C69.9825 38.3161 70.1525 38.0673 70.37 37.864C70.879 37.4588 71.5209 37.2584 72.17 37.302H74.311V37.075C74.3578 36.5544 74.2028 36.0356 73.878 35.626C73.6996 35.4587 73.488 35.3309 73.257 35.2507C73.0259 35.1706 72.7806 35.1401 72.537 35.161C71.7801 35.1686 71.0382 35.3737 70.385 35.756L70.05 34.945C70.4641 34.7122 70.9032 34.527 71.359 34.393C71.7958 34.2737 72.2471 34.2154 72.7 34.22C73.0571 34.1943 73.4156 34.2433 73.7527 34.3638C74.0898 34.4843 74.3981 34.6737 74.658 34.92C75.1391 35.5044 75.3757 36.2522 75.318 37.007V41.387H74.453L74.345 40.598C73.6799 41.187 72.8214 41.5105 71.933 41.507L71.927 41.505ZM72.176 40.586C72.5596 40.583 72.9386 40.502 73.29 40.348C73.6605 40.195 74.0039 39.9832 74.307 39.721V38.142H72.36C71.289 38.142 70.749 38.575 70.749 39.442C70.7408 39.6016 70.7698 39.7609 70.8336 39.9073C70.8975 40.0538 70.9945 40.1834 71.117 40.286C71.4262 40.4982 71.7964 40.6033 72.171 40.585L72.176 40.586Z" fill="white"/>
<path d="M76.996 31.23H78.013V41.375H76.996V31.23Z" fill="white"/>
<path d="M80.652 38.228C80.6908 38.8807 80.968 39.4963 81.431 39.958C81.8972 40.3901 82.5158 40.6195 83.151 40.596C83.5257 40.5992 83.8994 40.5593 84.2649 40.477C84.6201 40.374 84.9616 40.2286 85.282 40.044L85.617 40.834C85.2508 41.0625 84.8538 41.2373 84.438 41.353C83.9927 41.4667 83.5344 41.5211 83.0749 41.515C82.4298 41.5289 81.7934 41.3642 81.236 41.039C80.7235 40.7306 80.3078 40.2847 80.0359 39.752C79.7459 39.1717 79.6011 38.5296 79.6139 37.881C79.6028 37.2129 79.755 36.5521 80.057 35.956C80.3209 35.428 80.725 34.9828 81.225 34.669C81.708 34.3679 82.2668 34.2105 82.836 34.215C83.3918 34.2025 83.9395 34.3489 84.415 34.637C84.8651 34.9196 85.2252 35.3248 85.453 35.805C85.7053 36.3271 85.8313 36.9012 85.821 37.481C85.821 37.73 85.81 37.989 85.789 38.238H80.652V38.228ZM82.837 35.102C82.5666 35.0971 82.2983 35.1485 82.0488 35.2528C81.7994 35.3571 81.5743 35.5121 81.388 35.708C80.9737 36.158 80.7189 36.7319 80.663 37.341H84.7729V37.276C84.7764 36.887 84.6913 36.5022 84.524 36.151C84.376 35.8317 84.1396 35.5614 83.8429 35.372C83.5385 35.1921 83.1906 35.0987 82.837 35.102Z" fill="white"/>
<path d="M91.155 35.242C90.944 35.2075 90.7307 35.1894 90.517 35.188C89.7339 35.2088 88.9849 35.5121 88.408 36.042V41.374H87.391V34.355H88.256L88.364 35.209C88.9863 34.5754 89.834 34.2137 90.722 34.203C90.9147 34.2045 91.1068 34.2263 91.295 34.268L91.155 35.242Z" fill="white"/>
</g>
<defs>
<clipPath id="clip0_690_1674">
<rect width="108.826" height="44.454" fill="white" transform="translate(0 0.77301)"/>
</clipPath>
</defs>
</svg>
