<svg width="103" height="102" viewBox="0 0 103 102" fill="none" xmlns="http://www.w3.org/2000/svg">
<rect x="1" y="0.5" width="101" height="101" rx="50.5" fill="white"/>
<rect x="1" y="0.5" width="101" height="101" rx="50.5" stroke="#1D1939"/>
<rect x="26.25" y="57.875" width="30.25" height="9.625" rx="4.8125" fill="#F6F6F6" stroke="#3C3C3C" stroke-width="2"/>
<rect x="31.75" y="28.3125" width="30.25" height="9.625" rx="4.8125" stroke="#3C3C3C" stroke-width="2"/>
<rect x="26.25" y="37.9375" width="30.25" height="9.625" rx="4.8125" stroke="#3C3C3C" stroke-width="2"/>
<rect x="30.375" y="47.5625" width="30.25" height="9.625" rx="4.8125" stroke="#3C3C3C" stroke-width="2"/>
<ellipse cx="59.5822" cy="56.8485" rx="16.1447" ry="16.161" fill="#01C246" stroke="#3C3C3C" stroke-width="2"/>
<path d="M59.6665 67.4435C59.2585 67.4435 58.9138 67.2996 58.6324 67.0118C58.351 66.7241 58.2102 66.3643 58.2102 65.9327V64.3356L58.8434 64.9183C57.9007 64.8751 57.0846 64.7528 56.3952 64.5514C55.7058 64.3499 55.1429 64.1485 54.7068 63.9471C54.3409 63.7744 54.0806 63.5298 53.9259 63.2132C53.7852 62.8967 53.7289 62.573 53.757 62.242C53.7992 61.9111 53.9188 61.6089 54.1158 61.3355C54.3128 61.0622 54.5661 60.8823 54.8756 60.796C55.1992 60.6952 55.5721 60.7384 55.9942 60.9255C56.2756 61.0837 56.6977 61.2492 57.2605 61.4219C57.8374 61.5801 58.5479 61.6593 59.3921 61.6593C59.9831 61.6593 60.4474 61.6017 60.7851 61.4866C61.1369 61.3715 61.3831 61.2204 61.5238 61.0334C61.6786 60.8319 61.7559 60.6161 61.7559 60.3859C61.7559 60.1701 61.6997 59.9902 61.5871 59.8463C61.4886 59.688 61.3198 59.5513 61.0806 59.4362C60.8414 59.3067 60.5107 59.1916 60.0886 59.0909L57.7037 58.5729C56.3952 58.2708 55.4173 57.7672 54.7701 57.0621C54.1369 56.3427 53.8204 55.4146 53.8204 54.2779C53.8204 53.4146 54.0244 52.6448 54.4324 51.9686C54.8545 51.2779 55.4384 50.7168 56.1841 50.2851C56.9439 49.8534 57.8304 49.5801 58.8434 49.4649L58.2102 49.8319V48.3858C58.2102 47.9541 58.351 47.5944 58.6324 47.3067C58.9138 47.0189 59.2585 46.875 59.6665 46.875C60.0886 46.875 60.4404 47.0189 60.7218 47.3067C61.0032 47.5944 61.1439 47.9541 61.1439 48.3858V49.8319L60.5107 49.4218C61.0454 49.4362 61.6223 49.5297 62.2414 49.7024C62.8604 49.8606 63.4021 50.0837 63.8665 50.3714C64.1901 50.5441 64.4152 50.7815 64.5418 51.0837C64.6825 51.3858 64.7318 51.6952 64.6896 52.0117C64.6614 52.3139 64.5489 52.5873 64.3519 52.8319C64.169 53.0765 63.9157 53.242 63.5921 53.3283C63.2826 53.4002 62.9097 53.3427 62.4735 53.1556C62.1499 53.0117 61.7841 52.8966 61.376 52.8103C60.9821 52.7096 60.4755 52.6592 59.8565 52.6592C59.1107 52.6592 58.5339 52.7959 58.1258 53.0693C57.7319 53.3427 57.5349 53.6952 57.5349 54.1269C57.5349 54.4146 57.6474 54.6592 57.8726 54.8607C58.1118 55.0477 58.5409 55.2132 59.16 55.3571L61.566 55.8966C62.9027 56.1988 63.8876 56.7024 64.5207 57.4074C65.168 58.0981 65.4916 58.9974 65.4916 60.1053C65.4916 60.9686 65.2876 61.7312 64.8795 62.3931C64.4715 63.055 63.9016 63.5945 63.17 64.0118C62.4524 64.4291 61.6152 64.7025 60.6585 64.832L61.1439 64.314V65.9327C61.1439 66.3643 61.0032 66.7241 60.7218 67.0118C60.4544 67.2996 60.1027 67.4435 59.6665 67.4435Z" fill="white"/>
</svg>
