<svg width="103" height="102" viewBox="0 0 103 102" fill="none" xmlns="http://www.w3.org/2000/svg">
<rect x="1" y="0.5" width="101" height="101" rx="50.5" fill="white"/>
<rect x="1" y="0.5" width="101" height="101" rx="50.5" stroke="#1D1939"/>
<circle cx="52" cy="52.375" r="26.8125" fill="#01C246"/>
<path d="M77.8604 48.7293C78.6675 48.6369 79.4008 49.2165 79.4499 50.0274C79.7827 55.5292 78.4545 61.0169 75.6203 65.7705C72.5345 70.9461 67.8341 74.965 62.2418 77.2092C56.6495 79.4533 50.4749 79.7986 44.6673 78.1919C38.8597 76.5851 33.7406 73.1154 30.0969 68.316C26.4533 63.5166 24.4869 57.6533 24.5001 51.6275C24.5132 45.6018 26.5052 39.7471 30.1697 34.9637C33.8342 30.1802 38.9684 26.7328 44.783 25.1514C50.1233 23.699 55.7661 23.8945 60.976 25.6936C61.7439 25.9588 62.1051 26.8209 61.7992 27.5735C61.4934 28.3261 60.6364 28.6838 59.8669 28.4236C55.2558 26.8643 50.2733 26.707 45.555 27.9903C40.3625 29.4025 35.7776 32.4811 32.5051 36.7528C29.2326 41.0245 27.4538 46.2528 27.442 51.634C27.4303 57.0151 29.1863 62.2511 32.4402 66.537C35.694 70.823 40.2655 73.9216 45.4518 75.3564C50.6381 76.7913 56.1521 76.4829 61.1461 74.4788C66.1402 72.4747 70.3377 68.8858 73.0934 64.2639C75.5974 60.064 76.785 55.2225 76.5223 50.3621C76.4784 49.5509 77.0532 48.8216 77.8604 48.7293Z" fill="#3C3C3C"/>
<path d="M52 40L52 52" stroke="white" stroke-width="3" stroke-linecap="round"/>
<path d="M64 52L52 52" stroke="white" stroke-width="3" stroke-linecap="round"/>
<path fill-rule="evenodd" clip-rule="evenodd" d="M75 30.6213L77.9393 33.5607C78.5251 34.1464 79.4749 34.1464 80.0607 33.5607C80.6464 32.9749 80.6464 32.0251 80.0607 31.4393L75.0607 26.4393C74.704 26.0827 74.2125 25.9432 73.7504 26.0208C73.6689 26.0071 73.5853 26 73.5 26C73.2966 26 73.1027 26.0405 72.9258 26.1138C72.7489 26.187 72.5832 26.2955 72.4393 26.4393L67.4393 31.4393C66.8536 32.0251 66.8536 32.9749 67.4393 33.5607C68.0251 34.1464 68.9749 34.1464 69.5607 33.5607L72 31.1213L72 42.5C72 43.3284 72.6716 44 73.5 44C74.3284 44 75 43.3284 75 42.5L75 30.6213Z" fill="#3C3C3C"/>
</svg>
