<svg width="103" height="102" viewBox="0 0 103 102" fill="none" xmlns="http://www.w3.org/2000/svg">
<rect x="1" y="0.5" width="101" height="101" rx="50.5" fill="white"/>
<rect x="1" y="0.5" width="101" height="101" rx="50.5" stroke="#1D1939"/>
<path d="M49.2485 29.2716C44.4897 29.3254 39.8537 30.789 35.9267 33.4776C31.9998 36.1661 28.9582 39.9587 27.1868 44.3758C25.4153 48.793 24.9934 53.6362 25.9745 58.2931C26.9556 62.95 29.2956 67.2114 32.6986 70.5384C36.1015 73.8654 40.4147 76.1085 45.0925 76.9842C49.7704 77.8599 54.6029 77.3288 58.9789 75.4581C63.3549 73.5873 67.0779 70.4609 69.677 66.4743C72.2762 62.4876 73.6348 57.8198 73.5811 53.061L49.5202 53.3326L49.2485 29.2716Z" fill="white" stroke="#3C3C3C" stroke-width="3"/>
<path d="M54.7485 24.4591C57.9082 24.4235 61.0441 25.0105 63.9769 26.1867C66.9098 27.3629 69.5822 29.1053 71.8417 31.3143C74.1012 33.5234 75.9035 36.1558 77.1456 39.0614C78.3878 41.967 79.0454 45.0887 79.0811 48.2485L55.0202 48.5201L54.7485 24.4591Z" fill="#01C246" stroke="#3C3C3C" stroke-width="3"/>
</svg>
