<svg width="103" height="102" viewBox="0 0 103 102" fill="none" xmlns="http://www.w3.org/2000/svg">
<rect x="1" y="0.5" width="101" height="101" rx="50.5" fill="white"/>
<rect x="1" y="0.5" width="101" height="101" rx="50.5" stroke="#1D1939"/>
<circle cx="52" cy="52.375" r="26.8125" fill="#01C246"/>
<path d="M77.8604 48.7293C78.6675 48.6369 79.4008 49.2165 79.4499 50.0274C79.7827 55.5292 78.4545 61.0169 75.6203 65.7705C72.5345 70.9461 67.8341 74.965 62.2418 77.2092C56.6495 79.4533 50.4749 79.7986 44.6673 78.1919C38.8597 76.5851 33.7406 73.1154 30.0969 68.316C26.4533 63.5166 24.4869 57.6533 24.5001 51.6275C24.5132 45.6018 26.5052 39.7471 30.1697 34.9637C33.8342 30.1802 38.9684 26.7328 44.783 25.1514C50.1233 23.699 55.7661 23.8945 60.976 25.6936C61.7439 25.9588 62.1051 26.8209 61.7992 27.5735C61.4934 28.3261 60.6364 28.6838 59.8669 28.4236C55.2558 26.8643 50.2733 26.707 45.555 27.9903C40.3625 29.4025 35.7776 32.4811 32.5051 36.7528C29.2326 41.0245 27.4538 46.2528 27.442 51.634C27.4303 57.0151 29.1863 62.2511 32.4402 66.537C35.694 70.823 40.2655 73.9216 45.4518 75.3564C50.6381 76.7913 56.1521 76.4829 61.1461 74.4788C66.1402 72.4747 70.3377 68.8858 73.0934 64.2639C75.5974 60.064 76.785 55.2225 76.5223 50.3621C76.4784 49.5509 77.0532 48.8216 77.8604 48.7293Z" fill="#3C3C3C"/>
<path fill-rule="evenodd" clip-rule="evenodd" d="M71.5 29.125C71.5 28.2966 70.8284 27.625 70 27.625C69.1716 27.625 68.5 28.2966 68.5 29.125V33.5625H63.8125C62.9841 33.5625 62.3125 34.2341 62.3125 35.0625C62.3125 35.8909 62.9841 36.5625 63.8125 36.5625H68.5V41.25C68.5 42.0784 69.1716 42.75 70 42.75C70.8284 42.75 71.5 42.0784 71.5 41.25V36.5625H75.9375C76.7659 36.5625 77.4375 35.8909 77.4375 35.0625C77.4375 34.2341 76.7659 33.5625 75.9375 33.5625H71.5V29.125Z" fill="#3C3C3C"/>
<path d="M51.8648 66.125C51.4255 66.125 51.066 65.9732 50.7865 65.6696C50.5069 65.3862 50.3672 65.0319 50.3672 64.6069V62.5422C49.1491 62.4612 48.0608 62.2689 47.1024 61.9653C46.1638 61.6414 45.3551 61.2872 44.6762 60.9026C44.2169 60.6395 43.9274 60.2852 43.8076 59.8399C43.7078 59.3946 43.7377 58.9695 43.8975 58.5647C44.0572 58.1598 44.3268 57.8764 44.7062 57.7145C45.0856 57.5526 45.5348 57.6234 46.054 57.9271C46.6131 58.2509 47.342 58.5647 48.2405 58.8683C49.1591 59.1517 50.2573 59.2934 51.5353 59.2934C53.0329 59.2934 54.1112 59.0302 54.7701 58.5039C55.4291 57.9574 55.7586 57.2793 55.7586 56.4696C55.7586 55.8017 55.5289 55.2551 55.0697 54.83C54.6104 54.405 53.7917 54.0609 52.6136 53.7977L49.4386 53.0994C45.8244 52.3099 44.0173 50.387 44.0173 47.3304C44.0173 45.6301 44.5864 44.2031 45.7245 43.0493C46.8827 41.8753 48.4302 41.1668 50.3672 40.9239V38.7681C50.3672 38.3431 50.5069 37.9888 50.7865 37.7054C51.066 37.4018 51.4255 37.25 51.8648 37.25C52.2841 37.25 52.6335 37.4018 52.9131 37.7054C53.2126 37.9888 53.3624 38.3431 53.3624 38.7681V40.8935C54.1611 40.9745 54.9998 41.1668 55.8784 41.4704C56.7769 41.7741 57.5557 42.189 58.2146 42.7153C58.594 43.0189 58.8137 43.3732 58.8736 43.778C58.9335 44.1626 58.8636 44.5269 58.6639 44.8711C58.4842 45.1949 58.1947 45.4176 57.7953 45.539C57.4159 45.6402 56.9666 45.539 56.4475 45.2354C55.8684 44.8913 55.2194 44.618 54.5006 44.4156C53.7817 44.193 52.9231 44.0816 51.9247 44.0816C50.6467 44.0816 49.6383 44.3751 48.8995 44.9621C48.1806 45.5289 47.8212 46.2779 47.8212 47.209C47.8212 47.8972 48.0409 48.4539 48.4802 48.8789C48.9195 49.2838 49.6683 49.6077 50.7266 49.8506L53.9914 50.5793C55.9083 51.0043 57.3161 51.6824 58.2146 52.6136C59.1132 53.5244 59.5625 54.7288 59.5625 56.2267C59.5625 57.9271 58.9834 59.3237 57.8253 60.4168C56.6871 61.4896 55.1995 62.1677 53.3624 62.4511V64.6069C53.3624 65.0319 53.2226 65.3862 52.943 65.6696C52.6635 65.9732 52.3041 66.125 51.8648 66.125Z" fill="white"/>
</svg>
