<?xml version="1.0" encoding="utf-8"?>
<!-- Generator: Adobe Illustrator 16.0.0, SVG Export Plug-In . SVG Version: 6.00 Build 0)  -->
<!DOCTYPE svg PUBLIC "-//W3C//DTD SVG 1.1//EN" "http://www.w3.org/Graphics/SVG/1.1/DTD/svg11.dtd">
<svg version="1.1" id="Layer_1" xmlns="http://www.w3.org/2000/svg" xmlns:xlink="http://www.w3.org/1999/xlink" x="0px" y="0px"
	 width="600px" height="600px" viewBox="0 0 600 600" enable-background="new 0 0 600 600" xml:space="preserve">
<g>
	<g>
		<defs>
			<rect id="SVGID_1_" x="5.41" y="4.589" width="589.999" height="590.001"/>
		</defs>
		<clipPath id="SVGID_2_">
			<use xlink:href="#SVGID_1_"  overflow="visible"/>
		</clipPath>
		<path clip-path="url(#SVGID_2_)" fill="#D6E7F0" d="M300.411,594.59c162.923,0,294.998-132.074,294.998-294.999
			c0-162.927-132.075-295.002-294.998-295.002C137.487,4.589,5.409,136.664,5.409,299.591
			C5.409,462.516,137.487,594.59,300.411,594.59"/>
		<path clip-path="url(#SVGID_2_)" fill="#002A4B" d="M485.793,156.122c-1.805-1.488-4.459-1.356-6.117,0.302L300.413,335.688
			l-88.022-88.018c-0.853-0.858-2.013-1.336-3.221-1.336H117.92c-1.845,0-3.506,1.109-4.216,2.812
			c-0.704,1.709-0.315,3.667,0.995,4.972l182.488,182.491c0.86,0.863,2.023,1.335,3.226,1.335c0.149,0,0.3-0.006,0.45-0.021
			c1.358-0.135,2.586-0.869,3.342-2.008l182.491-273.736C487.998,160.228,487.606,157.61,485.793,156.122"/>
	</g>
</g>
</svg>
