<?xml version="1.0" encoding="utf-8"?>
<!-- Generator: Adobe Illustrator 16.0.0, SVG Export Plug-In . SVG Version: 6.00 Build 0)  -->
<!DOCTYPE svg PUBLIC "-//W3C//DTD SVG 1.1//EN" "http://www.w3.org/Graphics/SVG/1.1/DTD/svg11.dtd">
<svg version="1.1" id="Layer_1" xmlns="http://www.w3.org/2000/svg" xmlns:xlink="http://www.w3.org/1999/xlink" x="0px" y="0px"
	 width="600px" height="600px" viewBox="0 0 600 600" enable-background="new 0 0 600 600" xml:space="preserve">
<g>
	<g>
		<defs>
			<rect id="SVGID_1_" x="5.509" y="4.492" width="589.999" height="589.998"/>
		</defs>
		<clipPath id="SVGID_2_">
			<use xlink:href="#SVGID_1_"  overflow="visible"/>
		</clipPath>
		<path clip-path="url(#SVGID_2_)" fill="#D6E7F0" d="M300.508,594.49c162.922,0,295-132.074,295-294.999
			c0-162.922-132.077-294.999-295-294.999c-162.922,0-295,132.077-295,294.999C5.509,462.416,137.586,594.49,300.508,594.49"/>
		<path clip-path="url(#SVGID_2_)" fill="#002A4B" d="M125.803,395.449c1.692-34.935,20.226-44.768,24.075-46.436h301.26
			c3.765,1.65,22.376,11.552,24.077,46.436H125.803z M300.508,197.402c78.979,0,143.558,62.869,146.31,141.191h-292.62
			C156.95,260.271,221.529,197.402,300.508,197.402 M281.556,168.029c0-10.448,8.504-18.952,18.952-18.952
			s18.953,8.504,18.953,18.952s-8.505,18.952-18.953,18.952S281.556,178.477,281.556,168.029"/>
	</g>
</g>
</svg>
